<?xml version="1.0" standalone="no"?><!DOCTYPE svg PUBLIC "-//W3C//DTD SVG 1.1//EN" "http://www.w3.org/Graphics/SVG/1.1/DTD/svg11.dtd"><svg t="1675935016645" class="icon" viewBox="0 0 1024 1024" version="1.1" xmlns="http://www.w3.org/2000/svg" p-id="4334" xmlns:xlink="http://www.w3.org/1999/xlink" width="200" height="200"><path d="M523.3 546m-450 0a450 450 0 1 0 900 0 450 450 0 1 0-900 0Z" fill="#E0DDFF" opacity=".6" p-id="4335"></path><path d="M584.9 545.9l135.6-135.4c17-17 17-44.5 0-61.5s-44.6-17-61.6 0L523.3 484.4 387.7 349c-17-17-44.6-17-61.6 0s-17 44.5 0 61.5l135.6 135.3-135.6 135.4c-17 17-17 44.5 0 61.5 8.1 8.2 19.3 12.7 30.8 12.7 11.6 0 22.6-4.6 30.8-12.7l135.7-135.3L659 742.7c8.1 8.2 19.3 12.7 30.8 12.7 11.6 0 22.6-4.6 30.8-12.7 17-17 17-44.5 0-61.5L584.9 545.9z m0 0" fill="#7B1FA2" p-id="4336"></path></svg>